<svg width="420" height="420" viewBox="0 0 420 420" fill="none" xmlns="http://www.w3.org/2000/svg" class="account-symbol">
    <defs>
        <style>
            .account-symbol{
                --symbol-color: black;
            }
        </style>
        <clipPath id="clip0_111_197">
            <rect width="420" height="420" fill="var(--symbol-color)" />
        </clipPath>
    </defs>
    <g clip-path="url(#clip0_111_197)">
        <path fill-rule="evenodd" clip-rule="evenodd"
            d="M412 210C412 321.562 321.562 412 210 412C98.4385 412 8 321.562 8 210C8 98.4385 98.4385 8 210 8C321.562 8 412 98.4385 412 210ZM420 210C420 325.98 325.98 420 210 420C94.0202 420 0 325.98 0 210C0 94.0202 94.0202 0 210 0C325.98 0 420 94.0202 420 210ZM263.705 128.712C263.705 158.378 239.659 182.424 210.001 182.424C180.342 182.424 156.297 158.378 156.297 128.712C156.297 99.0463 180.342 75 210.001 75C239.659 75 263.705 99.0463 263.705 128.712ZM275.705 128.712C275.705 165.004 246.288 194.424 210.001 194.424C173.713 194.424 144.297 165.004 144.297 128.712C144.297 92.4204 173.713 63 210.001 63C246.288 63 275.705 92.4204 275.705 128.712Z"
            fill="var(--symbol-color)" />
        <path
            d="M303.031 203.973V208.402L307.263 209.706C311.077 210.882 314.725 212.475 318.161 214.437L322.233 216.764L325.474 213.374L332.746 205.766C334.199 204.246 336.438 204.246 337.891 205.766L342.228 201.62L337.891 205.766L348.863 217.245C350.462 218.918 350.462 221.738 348.863 223.411L341.578 231.032L338.609 234.138L340.593 237.949C342.477 241.568 344.01 245.418 345.143 249.452L346.372 253.829H350.919H361.001C363.21 253.829 365.001 255.62 365.001 257.829V274.509C365.001 276.718 363.21 278.509 361.001 278.509H350.892H346.352L345.118 282.878C343.982 286.9 342.447 290.739 340.564 294.348L338.573 298.161L341.545 301.27L348.864 308.927C350.463 310.6 350.463 313.42 348.864 315.093L337.892 326.571C336.439 328.091 334.2 328.091 332.747 326.571L325.415 318.901L322.177 315.514L318.107 317.833C314.687 319.782 311.057 321.364 307.263 322.534L303.031 323.838V328.268V339.338C303.031 341.547 301.24 343.338 299.031 343.338H283.97C281.761 343.338 279.97 341.547 279.97 339.338V328.268V323.838L275.737 322.534C271.944 321.365 268.314 319.782 264.894 317.834L260.824 315.514L257.586 318.901L250.254 326.572C248.801 328.092 246.562 328.092 245.109 326.572L234.137 315.093C232.537 313.42 232.537 310.601 234.137 308.928L241.455 301.271L244.427 298.162L242.437 294.349C240.553 290.74 239.018 286.9 237.882 282.878L236.648 278.508H232.108H222C219.791 278.508 218 276.718 218 274.508V257.829C218 255.62 219.791 253.829 222 253.829H232.081H236.628L237.857 249.451C238.99 245.419 240.523 241.568 242.407 237.949L244.391 234.139L241.422 231.033L234.136 223.411C232.537 221.738 232.537 218.918 234.136 217.245L245.109 205.767C246.562 204.247 248.801 204.247 250.254 205.767L257.525 213.374L260.766 216.765L264.839 214.438C268.275 212.475 271.923 210.882 275.737 209.706L279.97 208.402V203.972V193C279.97 190.791 281.761 189 283.97 189H299.031C301.24 189 303.031 190.791 303.031 193V203.973ZM291.356 289.118C303.731 289.118 313.306 278.703 313.306 266.431C313.306 254.16 303.731 243.745 291.356 243.745C278.981 243.745 269.406 254.16 269.406 266.431C269.406 278.703 278.981 289.118 291.356 289.118Z"
            stroke="var(--symbol-color)" stroke-width="12" />
        <path
            d="M272.054 195.734C268.374 193.393 264.458 191.292 260.294 189.444C257.767 191.54 255.107 193.481 252.328 195.252L258.448 201.644C262.732 199.2 267.287 197.21 272.054 195.734Z"
            fill="var(--symbol-color)" />
        <path
            d="M221.462 206.74C217.721 207.285 213.894 207.567 210.001 207.567C190.967 207.567 173.509 200.822 159.885 189.591C108.475 213.174 98.5 277.42 98.5 352.978V387.987C130.81 408.271 169.035 420 210 420C252.883 420 292.764 407.146 326 385.081V352.978C326 345.32 325.869 337.778 325.578 330.384L325.484 330.285C321.763 332.401 317.839 334.176 313.75 335.569C313.921 341.265 314 347.072 314 352.978V378.521C283.783 397.212 248.167 408 210 408C173.709 408 139.728 398.247 110.5 381.223V352.978C110.5 315.473 113.011 282.029 121.365 255.383C128.802 231.659 140.563 214.202 158.695 203.699C173.294 213.706 190.975 219.567 210.001 219.567C213.277 219.567 216.513 219.393 219.7 219.055C217.767 215.08 218.354 210.111 221.462 206.74Z"
            fill="var(--symbol-color)" />
        <path
            d="M307.288 276.063C305.726 268.842 303.852 261.982 301.626 255.526C300.868 253.327 300.072 251.181 299.236 249.088C305.519 252.039 309.894 258.634 309.894 266.296C309.894 269.871 308.942 273.214 307.288 276.063Z"
            fill="var(--symbol-color)" />
    </g>
</svg>