<svg width="420" height="420" viewBox="0 0 420 420" fill="none" xmlns="http://www.w3.org/2000/svg" class="admin-symbol">
    <defs>
        <style>
            .admin-symbol{
                --symbol-color: black;
            }
        </style>
        <clipPath id="clip0_110_96">
            <rect width="420" height="420" fill="white" />
        </clipPath>
    </defs>
    <g clip-path="url(#clip0_110_96)">
        <path fill-rule="evenodd" clip-rule="evenodd"
            d="M412 210C412 278.393 378.01 338.848 326 375.393V352.978C326 277.262 313.158 212.905 260.294 189.444C246.645 200.763 229.117 207.567 210.001 207.567C190.967 207.567 173.509 200.822 159.885 189.591C148.417 194.852 139.01 202.137 131.316 211.119C129.397 213.359 127.585 215.705 125.874 218.151C125.278 219.002 124.695 219.866 124.123 220.742C144.493 234.504 159 242.005 183.677 252.806C185.034 253.4 185.817 254.811 185.545 256.268C183.22 268.724 172.656 324.72 169.422 331.125C157.373 349.08 145.606 360.031 118.639 380.142L118 380.5L117.361 380.142C114.957 378.349 112.674 376.629 110.5 374.97C106.076 371.593 102.107 368.471 98.5 365.506V378.466C43.9596 342.295 8 280.347 8 210C8 98.4385 98.4385 8 210 8C321.562 8 412 98.4385 412 210ZM420 210C420 283.097 382.653 347.471 326 385.081C292.764 407.146 252.883 420 210 420C170.132 420 132.859 408.89 101.107 389.598C100.234 389.067 99.3649 388.53 98.5 387.987C39.3328 350.844 0 285.015 0 210C0 94.0202 94.0202 0 210 0C325.98 0 420 94.0202 420 210ZM118 338.689C105.356 328.923 99.4748 322.936 93.5557 314.294C92.9326 312.803 91.6853 309.078 90.0554 301.981C88.571 295.518 86.8819 286.778 85.0822 275.344C97.8041 269.789 107.038 264.9 118.424 257.475C129.446 264.711 138.433 269.519 150.612 275.05C149.592 280.371 148.241 287.306 146.863 294.039C145.739 299.534 144.613 304.812 143.646 308.942C143.16 311.016 142.737 312.701 142.392 313.937C142.306 314.245 142.234 314.493 142.175 314.686C136.346 323.119 130.452 329.071 118 338.689ZM118.787 353.142C136.847 339.701 144.786 332.308 152.914 320.237C155.11 315.903 162.284 278.011 163.862 269.584C164.046 268.6 163.516 267.646 162.598 267.245C144.853 259.505 134.853 254.27 119.67 243.856C118.936 243.352 117.96 243.35 117.223 243.852C101.713 254.404 91.5779 259.7 73.3773 267.286C72.4698 267.665 71.93 268.621 72.0725 269.594C76.5832 300.393 80.6569 315.442 83.0865 320.237C91.2146 332.308 99.1538 339.701 117.214 353.142C117.44 353.31 117.719 353.404 118 353.404C118.282 353.404 118.561 353.31 118.787 353.142ZM126.221 389.457C153.321 369.225 166.286 357.333 179.386 337.812L179.799 337.196L180.134 336.534C181.151 334.519 181.946 331.821 182.509 329.795C183.176 327.396 183.907 324.452 184.664 321.207C186.184 314.698 187.907 306.581 189.582 298.364C192.939 281.908 196.175 264.717 197.341 258.469C198.679 251.301 194.747 244.552 188.488 241.813C168.863 233.223 156.06 226.885 141.47 217.736C146.411 212.209 152.107 207.511 158.694 203.698C173.293 213.706 190.975 219.567 210.001 219.567C229.161 219.567 246.957 213.623 261.615 203.487C280.699 214.05 293.419 231.714 301.626 255.526C310.796 282.13 314 315.572 314 352.978V378.521C283.783 397.212 248.167 408 210 408C180.041 408 151.656 401.354 126.221 389.457ZM265.408 128.712C265.408 158.378 241.362 182.424 211.704 182.424C182.045 182.424 158 158.378 158 128.712C158 99.0463 182.045 75 211.704 75C241.362 75 265.408 99.0463 265.408 128.712ZM277.408 128.712C277.408 165.004 247.991 194.424 211.704 194.424C175.417 194.424 146 165.004 146 128.712C146 92.4204 175.417 63 211.704 63C247.991 63 277.408 92.4204 277.408 128.712Z"
            fill="var(--symbol-color)" />
    </g>
</svg>
    