<svg width="420" height="420" viewBox="0 0 420 420" fill="none" xmlns="http://www.w3.org/2000/svg" class="admin-symbol">
    <defs>
        <style>
            .admin-symbol{
                --symbol-color: black;
            }
        </style>
    </defs>
<g clip-path="url(#clip0_54_62)">
<path d="M416 210C416 323.771 323.771 416 210 416C96.2293 416 4 323.771 4 210C4 96.2293 96.2293 4 210 4C323.771 4 416 96.2293 416 210Z" stroke="var(--symbol-color)" stroke-width="8"/>
<path d="M118 340.204C104.742 330.02 98.6498 323.876 92.4981 314.874C91.8329 313.32 90.5484 309.49 88.8856 302.25C87.3539 295.581 85.6094 286.519 83.7529 274.614C97.1084 268.822 106.543 263.834 118.425 256.04C129.95 263.65 139.152 268.562 151.968 274.347C150.93 279.778 149.5 287.141 148.039 294.28C146.913 299.779 145.785 305.07 144.814 309.216C144.326 311.297 143.899 313.001 143.547 314.26C143.431 314.678 143.337 314.991 143.269 315.214C137.195 324.032 131.09 330.149 118 340.204ZM124.263 344.931C124.343 344.987 124.423 345.044 124.502 345.103C124.423 345.045 124.344 344.988 124.265 344.933C124.264 344.932 124.264 344.932 124.263 344.931ZM111.472 345.122C111.56 345.057 111.648 344.993 111.737 344.931C111.737 344.932 111.736 344.932 111.735 344.933C111.647 344.995 111.559 345.058 111.472 345.122Z" fill="var(--symbol-color)" stroke="var(--symbol-color)" stroke-width="21.6"/>
<path fill-rule="evenodd" clip-rule="evenodd" d="M124.123 220.742C132.918 207.264 144.561 196.621 159.885 189.591C173.509 200.822 190.967 207.567 210.001 207.567C229.117 207.567 246.645 200.763 260.294 189.444C313.158 212.905 326 277.262 326 352.978V385.081C292.764 407.146 252.883 420 210 420C169.035 420 130.81 408.271 98.5 387.987V365.506C103.878 369.928 110.063 374.699 117.361 380.142C117.439 380.2 117.487 380.292 117.487 380.389V380.534C117.487 380.727 117.706 380.837 117.861 380.722C117.944 380.66 118.056 380.66 118.139 380.722C118.294 380.837 118.513 380.727 118.513 380.534V380.389C118.513 380.292 118.561 380.2 118.639 380.142C145.606 360.031 157.373 349.08 169.422 331.125C172.656 324.72 183.22 268.724 185.545 256.268C185.817 254.811 185.034 253.4 183.677 252.806C159 242.005 144.493 234.504 124.123 220.742Z" fill="var(--symbol-color)"/>
<path d="M277.408 128.712C277.408 165.004 247.991 194.424 211.704 194.424C175.417 194.424 146 165.004 146 128.712C146 92.4204 175.417 63 211.704 63C247.991 63 277.408 92.4204 277.408 128.712Z" fill="var(--symbol-color)"/>
</g>
<defs>
<clipPath id="clip0_54_62">
<rect width="420" height="420" fill="var(--symbol-color)"/>
</clipPath>
</defs>
</svg>
