<svg width="420" height="420" viewBox="0 0 420 420" fill="none" xmlns="http://www.w3.org/2000/svg" class="competiton-symbol">
    <defs>
        <style>
            .competiton-symbol{
                --symbol-color: black;
            }
        </style>
    </defs>
    <g clip-path="url(#clip0_54_73)">
        <path fill-rule="evenodd" clip-rule="evenodd" d="M284.643 96.4016L284.527 97.9862C278.819 175.899 276.605 206.131 258.779 225.729C243.084 241.56 234.383 247.579 221.095 252.469C219.464 253.07 218.356 254.609 218.356 256.348V322.085C218.356 324.331 220.177 326.153 222.423 326.153H251.152C253.399 326.153 255.22 327.974 255.22 330.22V336.576C255.22 338.823 257.041 340.644 259.288 340.644H264.118C266.365 340.644 268.186 342.465 268.186 344.712V357.678C268.186 359.925 266.365 361.746 264.118 361.746H211.601C211.159 361.91 210.681 362 210.182 362H156.261C154.014 362 152.193 360.179 152.193 357.932V344.966C152.193 342.72 154.014 340.898 156.261 340.898H161.092C163.338 340.898 165.159 339.077 165.159 336.831V330.475C165.159 328.228 166.981 326.407 169.227 326.407H197.956C200.203 326.407 202.024 324.586 202.024 322.339V256.602C202.024 254.863 200.916 253.324 199.284 252.723C185.996 247.833 177.295 241.814 161.6 225.983C143.775 206.386 141.56 176.153 135.852 98.2404L135.736 96.6559C135.564 94.2983 137.427 92.2542 139.791 92.2542H207.299C207.741 92.0899 208.219 92 208.718 92H280.588C282.952 92 284.816 94.0441 284.643 96.4016Z" fill="var(--symbol-color)"/>
        <path d="M284.527 97.9862L289.345 98.3391L289.345 98.3391L284.527 97.9862ZM284.643 96.4016L279.825 96.0487L279.825 96.0487L284.643 96.4016ZM258.779 225.729L262.21 229.13L262.283 229.056L262.353 228.979L258.779 225.729ZM221.095 252.469L219.427 247.936L219.427 247.936L221.095 252.469ZM211.601 361.746V356.915H210.731L209.916 357.219L211.601 361.746ZM199.284 252.723L200.952 248.19L200.952 248.19L199.284 252.723ZM161.6 225.983L158.027 229.233L158.096 229.31L158.17 229.384L161.6 225.983ZM135.852 98.2404L131.035 98.5933L131.035 98.5933L135.852 98.2404ZM135.736 96.6559L140.554 96.3029L140.554 96.3029L135.736 96.6559ZM207.299 92.2542V97.0847H208.169L208.984 96.7814L207.299 92.2542ZM328.367 110.088L323.551 109.708L323.551 109.708L328.367 110.088ZM299.712 201.576L303.377 204.723L303.547 204.525L303.694 204.309L299.712 201.576ZM92.0127 110.342L87.1971 110.721L87.1972 110.721L92.0127 110.342ZM120.668 201.831L116.685 204.564L116.833 204.779L117.003 204.977L120.668 201.831ZM289.345 98.3391L289.461 96.7545L279.825 96.0487L279.709 97.6333L289.345 98.3391ZM262.353 228.979C272.143 218.216 277.385 204.728 280.954 184.568C284.503 164.517 286.499 137.179 289.345 98.3391L279.709 97.6332C276.847 136.706 274.882 163.441 271.441 182.884C268.019 202.217 263.241 213.644 255.206 222.479L262.353 228.979ZM222.764 257.002C236.958 251.779 246.24 245.238 262.21 229.13L255.349 222.328C239.928 237.882 231.808 243.38 219.427 247.936L222.764 257.002ZM223.186 256.348C223.186 256.699 222.969 256.927 222.764 257.002L219.427 247.936C215.958 249.212 213.525 252.518 213.525 256.348H223.186ZM223.186 322.085V256.348H213.525V322.085H223.186ZM222.423 321.322C222.845 321.322 223.186 321.664 223.186 322.085H213.525C213.525 326.999 217.509 330.983 222.423 330.983V321.322ZM251.152 321.322H222.423V330.983H251.152V321.322ZM260.05 330.22C260.05 325.306 256.067 321.322 251.152 321.322V330.983C250.731 330.983 250.389 330.642 250.389 330.22H260.05ZM260.05 336.576V330.22H250.389V336.576H260.05ZM259.288 335.814C259.709 335.814 260.05 336.155 260.05 336.576H250.389C250.389 341.491 254.373 345.475 259.288 345.475V335.814ZM264.118 335.814H259.288V345.475H264.118V335.814ZM273.017 344.712C273.017 339.797 269.033 335.814 264.118 335.814V345.475C263.697 345.475 263.356 345.133 263.356 344.712H273.017ZM273.017 357.678V344.712H263.356V357.678H273.017ZM264.118 366.576C269.033 366.576 273.017 362.592 273.017 357.678H263.356C263.356 357.257 263.697 356.915 264.118 356.915V366.576ZM211.601 366.576H264.118V356.915H211.601V366.576ZM209.916 357.219C210.005 357.185 210.097 357.169 210.182 357.169V366.831C211.265 366.831 212.313 366.635 213.286 366.273L209.916 357.219ZM210.182 357.169H156.261V366.831H210.182V357.169ZM156.261 357.169C156.682 357.169 157.024 357.511 157.024 357.932H147.363C147.363 362.847 151.347 366.831 156.261 366.831V357.169ZM157.024 357.932V344.966H147.363V357.932H157.024ZM157.024 344.966C157.024 345.387 156.682 345.729 156.261 345.729V336.068C151.347 336.068 147.363 340.052 147.363 344.966H157.024ZM156.261 345.729H161.092V336.068H156.261V345.729ZM161.092 345.729C166.006 345.729 169.99 341.745 169.99 336.831H160.329C160.329 336.409 160.67 336.068 161.092 336.068V345.729ZM169.99 336.831V330.475H160.329V336.831H169.99ZM169.99 330.475C169.99 330.896 169.648 331.237 169.227 331.237V321.576C164.313 321.576 160.329 325.56 160.329 330.475H169.99ZM169.227 331.237H197.956V321.576H169.227V331.237ZM197.956 331.237C202.87 331.237 206.854 327.253 206.854 322.339H197.193C197.193 321.918 197.535 321.576 197.956 321.576V331.237ZM206.854 322.339V256.602H197.193V322.339H206.854ZM206.854 256.602C206.854 252.772 204.421 249.467 200.952 248.19L197.616 257.257C197.41 257.181 197.193 256.954 197.193 256.602H206.854ZM200.952 248.19C188.572 243.634 180.451 238.137 165.03 222.582L158.17 229.384C174.139 245.492 183.421 252.033 197.616 257.257L200.952 248.19ZM165.173 222.733C157.138 213.899 152.361 202.471 148.939 183.138C145.497 163.695 143.532 136.961 140.67 97.8875L131.035 98.5933C133.88 137.433 135.877 164.771 139.426 184.822C142.994 204.982 148.237 218.47 158.027 229.233L165.173 222.733ZM140.67 97.8875L140.554 96.3029L130.919 97.0088L131.035 98.5933L140.67 97.8875ZM140.554 96.3029C140.569 96.5156 140.488 96.7096 140.371 96.8379C140.25 96.9694 140.04 97.0847 139.791 97.0847V87.4237C134.563 87.4237 130.545 91.9096 130.919 97.0088L140.554 96.3029ZM139.791 97.0847H207.299V87.4237H139.791V97.0847ZM208.718 87.1695C207.635 87.1695 206.587 87.3651 205.614 87.7271L208.984 96.7814C208.894 96.8146 208.802 96.8305 208.718 96.8305V87.1695ZM280.588 87.1695H208.718V96.8305H280.588V87.1695ZM289.461 96.7546C289.834 91.6553 285.817 87.1695 280.588 87.1695V96.8305C280.339 96.8305 280.13 96.7152 280.009 96.5837C279.891 96.4554 279.81 96.2613 279.825 96.0487L289.461 96.7546ZM323.551 109.708C321.833 131.507 319.358 147.185 315.111 160.674C310.886 174.097 304.841 185.564 295.729 198.843L303.694 204.309C313.188 190.474 319.741 178.145 324.327 163.575C328.892 149.073 331.441 132.564 333.182 110.467L323.551 109.708ZM296.046 198.43C287.666 208.192 281.368 214.406 275.906 217.698C270.814 220.767 266.708 221.163 262.056 219.406L258.644 228.445C266.412 231.378 273.602 230.367 280.893 225.972C287.814 221.801 294.987 214.496 303.377 204.723L296.046 198.43ZM324.324 100.898H283.959V110.559H324.324V100.898ZM333.182 110.467C333.591 105.282 329.481 100.898 324.324 100.898V110.559C323.89 110.559 323.513 110.185 323.551 109.708L333.182 110.467ZM87.1972 110.721C88.9386 132.818 91.4877 149.327 96.0527 163.829C100.639 178.399 107.191 190.728 116.685 204.564L124.651 199.097C115.539 185.818 109.493 174.351 105.268 160.929C101.022 147.439 98.5463 131.761 96.8283 109.962L87.1972 110.721ZM117.003 204.977C125.393 214.75 132.565 222.055 139.487 226.227C146.778 230.621 153.968 231.632 161.736 228.699L158.323 219.661C153.671 221.417 149.566 221.021 144.474 217.952C139.012 214.661 132.714 208.446 124.333 198.684L117.003 204.977ZM96.0553 110.814H136.42V101.153H96.0553V110.814ZM96.8283 109.962C96.8659 110.439 96.4892 110.814 96.0553 110.814V101.153C90.8987 101.153 86.7885 105.536 87.1971 110.721L96.8283 109.962Z" fill="var(--symbol-color)"/>
        <path d="M416 210C416 323.771 323.771 416 210 416C96.2293 416 4 323.771 4 210C4 96.2293 96.2293 4 210 4C323.771 4 416 96.2293 416 210Z" stroke="var(--symbol-color)" stroke-width="8"/>
    </g>
    <defs>
        <clipPath id="clip0_54_73">
            <rect width="420" height="420" fill="var(--symbol-color)"/>
        </clipPath>
    </defs>
</svg>
