<svg width="420" height="420" viewBox="0 0 420 420" fill="none" xmlns="http://www.w3.org/2000/svg" class="competition-symbol">
    <defs>
        <style>
            .competition-symbol{
                --symbol-color: black;
            }
        </style>
        <clipPath id="clip0_110_70">
            <rect width="420" height="420" fill="white" />
        </clipPath>
    </defs>
    <g clip-path="url(#clip0_110_70)">
        <path
            d="M127.194 97.0086H133.194V96.7783L133.176 96.5486L127.194 97.0086ZM127.072 95.4182L133.054 94.9582L133.054 94.9582L127.072 95.4182ZM127.194 97.0086H121.194V97.2389L121.211 97.4686L127.194 97.0086ZM154.316 225.224L149.976 229.367L150.065 229.461L150.158 229.55L154.316 225.224ZM194.012 252.064L195.997 246.402L195.997 246.402L194.012 252.064ZM148.692 361.745L148.692 367.745L148.692 367.745L148.692 361.745ZM213.5 361.745L213.5 355.745L213.5 355.745L213.5 361.745ZM214.003 361.717L214.671 355.754L214.005 355.68L213.339 355.754L214.003 361.717ZM225.989 252.064L227.974 257.726L227.974 257.726L225.989 252.064ZM265.685 225.224L269.843 229.55L269.936 229.461L270.025 229.367L265.685 225.224ZM292.807 97.0086L286.825 96.5486L286.825 96.5486L292.807 97.0086ZM292.93 95.4182L286.947 94.9582L286.947 94.9582L292.93 95.4182ZM215.106 91.0002L215.044 96.9999L215.075 97.0002H215.106V91.0002ZM215.058 91L215.058 85L215.058 85L215.058 91ZM131.343 91.0002L131.343 97.0002L131.343 97.0002L131.343 91.0002ZM338.988 109.155L333.008 108.66L333.008 108.66L338.988 109.155ZM308.803 200.982L313.26 204.998L313.48 204.755L313.671 204.489L308.803 200.982ZM81.0134 109.155L75.0338 109.649L75.0338 109.649L81.0134 109.155ZM111.199 200.982L106.33 204.489L106.521 204.755L106.741 204.998L111.199 200.982ZM133.176 96.5486L133.054 94.9582L121.089 95.8781L121.211 97.4685L133.176 96.5486ZM133.194 97.0086V97.0086H121.194V97.0086H133.194ZM158.656 221.081C150.406 212.438 145.446 201.235 141.867 181.97C138.259 162.544 136.194 135.801 133.176 96.5487L121.211 97.4686C124.206 136.418 126.314 163.947 130.069 184.162C133.854 204.536 139.45 218.34 149.976 229.367L158.656 221.081ZM195.997 246.402C183.098 241.879 174.651 236.446 158.474 220.898L150.158 229.55C167.047 245.782 176.932 252.433 192.027 257.726L195.997 246.402ZM202.898 255.957C202.898 251.434 199.897 247.769 195.997 246.402L192.027 257.726C191.564 257.564 190.898 256.989 190.898 255.957H202.898ZM202.898 321.937V255.957H190.898V321.937H202.898ZM192.613 332.02C198.017 332.02 202.898 327.776 202.898 321.937H190.898C190.898 320.608 191.943 320.02 192.613 320.02V332.02ZM162.351 332.02H192.613V320.02H162.351V332.02ZM164.066 330.103C164.066 331.432 163.021 332.02 162.351 332.02V320.02C156.947 320.02 152.066 324.264 152.066 330.103H164.066ZM164.066 336.482V330.103H152.066V336.482H164.066ZM153.781 346.565C159.184 346.565 164.066 342.321 164.066 336.482H152.066C152.066 335.154 153.11 334.565 153.781 334.565V346.565ZM148.692 346.565H153.781V334.565H148.692V346.565ZM150.407 344.648C150.407 345.977 149.363 346.565 148.692 346.565V334.565C143.288 334.565 138.407 338.81 138.407 344.648H150.407ZM150.407 357.662V344.648H138.407V357.662H150.407ZM148.692 355.745C149.363 355.745 150.407 356.333 150.407 357.662H138.407C138.407 363.501 143.288 367.745 148.692 367.745V355.745ZM213.5 355.745L148.692 355.745L148.692 367.745L213.5 367.745L213.5 355.745ZM213.339 355.754C213.394 355.748 213.448 355.745 213.5 355.745V367.745C213.893 367.745 214.283 367.723 214.668 367.68L213.339 355.754ZM213.336 367.68C213.723 367.723 214.114 367.745 214.509 367.745V355.745C214.561 355.745 214.616 355.748 214.671 355.754L213.336 367.68ZM214.509 367.745H271.309V355.745H214.509V367.745ZM271.309 367.745C276.713 367.745 281.594 363.501 281.594 357.662H269.594C269.594 356.334 270.638 355.745 271.309 355.745V367.745ZM281.594 357.662V344.648H269.594V357.662H281.594ZM281.594 344.648C281.594 338.81 276.713 334.565 271.309 334.565V346.565C270.638 346.565 269.594 345.977 269.594 344.648H281.594ZM271.309 334.565H266.22V346.565H271.309V334.565ZM266.22 334.565C266.891 334.565 267.935 335.154 267.935 336.482H255.935C255.935 342.321 260.817 346.565 266.22 346.565V334.565ZM267.935 336.482V330.103H255.935V336.482H267.935ZM267.935 330.103C267.935 324.264 263.054 320.02 257.651 320.02V332.02C256.98 332.02 255.935 331.432 255.935 330.103H267.935ZM257.651 320.02H227.388V332.02H257.651V320.02ZM227.388 320.02C228.058 320.02 229.103 320.608 229.103 321.937H217.103C217.103 327.776 221.984 332.02 227.388 332.02V320.02ZM229.103 321.937V255.957H217.103V321.937H229.103ZM229.103 255.957C229.103 256.989 228.437 257.564 227.974 257.726L224.004 246.402C220.104 247.769 217.103 251.434 217.103 255.957H229.103ZM227.974 257.726C243.069 252.433 252.954 245.782 269.843 229.55L261.527 220.898C245.35 236.446 236.903 241.879 224.004 246.402L227.974 257.726ZM270.025 229.367C280.551 218.34 286.147 204.536 289.932 184.162C293.687 163.947 295.795 136.418 298.79 97.4685L286.825 96.5486C283.807 135.801 281.742 162.544 278.134 181.97C274.555 201.235 269.595 212.438 261.345 221.081L270.025 229.367ZM298.79 97.4686L298.912 95.8782L286.947 94.9582L286.825 96.5486L298.79 97.4686ZM298.912 95.8782C299.379 89.7966 294.408 85.0002 288.658 85.0002V97.0002C287.889 97.0002 286.843 96.3072 286.947 94.9582L298.912 95.8782ZM288.658 85.0002H215.106V97.0002H288.658V85.0002ZM215.058 97C215.054 97 215.049 97 215.044 96.9999L215.168 85.0006C215.131 85.0002 215.095 85 215.058 85V97ZM131.343 97.0002L215.058 97L215.058 85L131.343 85.0002L131.343 97.0002ZM133.054 94.9582C133.158 96.3072 132.112 97.0002 131.343 97.0002V85.0002C125.593 85.0002 120.622 89.7966 121.089 95.8782L133.054 94.9582ZM333.008 108.66C331.202 130.494 328.606 146.108 324.181 159.503C319.783 172.815 313.486 184.212 303.934 197.476L313.671 204.489C323.718 190.538 330.692 178.05 335.575 163.267C340.432 148.566 343.129 131.874 344.967 109.649L333.008 108.66ZM304.345 196.966C295.525 206.755 288.981 212.888 283.364 216.113C278.182 219.089 274.062 219.456 269.371 217.769L265.308 229.06C273.7 232.079 281.478 231.034 289.34 226.519C296.768 222.254 304.414 214.817 313.26 204.998L304.345 196.966ZM334.729 98.7799H292.209V110.78H334.729V98.7799ZM344.967 109.649C345.479 103.46 340.386 98.7799 334.729 98.7799V110.78C334.048 110.78 332.887 110.124 333.008 108.66L344.967 109.649ZM75.0338 109.649C76.8721 131.874 79.5689 148.566 84.4255 163.267C89.3094 178.05 96.2827 190.538 106.33 204.489L116.067 197.476C106.515 184.212 100.218 172.815 95.8199 159.503C91.3949 146.108 88.7989 130.494 86.993 108.66L75.0338 109.649ZM106.741 204.998C115.587 214.817 123.233 222.254 130.661 226.519C138.523 231.034 146.301 232.079 154.693 229.06L150.63 217.769C145.939 219.456 141.819 219.089 136.637 216.113C131.02 212.888 124.476 206.755 115.656 196.966L106.741 204.998ZM85.2718 110.78H127.792V98.7799H85.2718V110.78ZM86.993 108.66C87.1141 110.124 85.9534 110.78 85.2718 110.78V98.7799C79.6153 98.7799 74.5219 103.46 75.0338 109.649L86.993 108.66Z"
            fill="var(--symbol-color)" />
        <path
            d="M416 210C416 323.771 323.771 416 210 416C96.2293 416 4 323.771 4 210C4 96.2293 96.2293 4 210 4C323.771 4 416 96.2293 416 210Z"
            stroke="var(--symbol-color)" stroke-width="8" />
    </g>
</svg>