<svg width="420" height="420" viewBox="0 0 420 420" fill="none" xmlns="http://www.w3.org/2000/svg" class="location-symbol">
    <defs>
        <style>
            .location-symbol{
                --symbol-color: black;
            }
        </style>
        <clipPath id="clip0_109_3">
            <rect width="420" height="420" fill="white" />
        </clipPath>
    </defs>
    <g clip-path="url(#clip0_109_3)">
        <path
            d="M416 210C416 323.771 323.771 416 210 416C96.2293 416 4 323.771 4 210C4 96.2293 96.2293 4 210 4C323.771 4 416 96.2293 416 210Z"
            stroke="var(--symbol-color)" stroke-width="8" />
        <path
            d="M259.055 136.651L209.997 258.178L161.123 137.107C155.415 119.768 157.476 101.515 165.879 87.7308C174.207 74.0685 188.948 64.456 209.611 64.456C209.755 64.456 209.899 64.4566 210.043 64.4577L216.089 64.5043V64.2371C233.874 65.7926 246.733 74.8623 254.3 87.2747C262.703 101.059 264.764 119.312 259.055 136.651Z"
            stroke="var(--symbol-color)" stroke-width="12" />
        <path fill-rule="evenodd" clip-rule="evenodd"
            d="M169.984 286.548C168.697 284.604 166.333 283.549 164.104 284.228C139.425 291.747 123 305.139 123 320.406C123 343.93 161.991 363 210.089 363C258.186 363 297.177 343.93 297.177 320.406C297.177 304.191 278.65 290.092 251.384 282.896C249.14 282.304 246.823 283.432 245.601 285.405V285.405C243.517 288.769 245.122 293.635 248.943 294.665C255.47 296.425 261.344 298.596 266.397 301.068C280.983 308.201 285.177 315.778 285.177 320.406C285.177 325.035 280.983 332.611 266.397 339.745C252.607 346.489 232.715 351 210.089 351C187.463 351 167.57 346.489 153.78 339.745C139.195 332.611 135 325.035 135 320.406C135 315.778 139.195 308.201 153.78 301.068C157.702 299.15 162.119 297.412 166.951 295.907C170.72 294.734 172.163 289.839 169.984 286.548V286.548Z"
            fill="var(--symbol-color)" />
        <ellipse cx="210.469" cy="113.904" rx="19.7756" ry="20.1559" fill="var(--symbol-color)" />
    </g>
</svg>