<svg width="420" height="420" viewBox="0 0 420 420" fill="none" xmlns="http://www.w3.org/2000/svg" class="map-point-symbol">
    <defs>
        <style>
            .map-point-symbol{
                --symbol-color: black;
            }
        </style>
    </defs>
    <path
        d="M279.48 109.085L209.799 281.698L140.371 109.713C132.289 85.2312 135.161 59.3699 147.114 39.7632C158.992 20.2778 180.021 6.62799 209.267 6.62799C209.472 6.62799 209.676 6.62877 209.879 6.63034L215.925 6.67692V6.15535C242.401 7.71393 261.595 20.8572 272.737 39.1352C284.689 58.7419 287.562 84.6032 279.48 109.085Z"
        stroke="var(--symbol-color)" stroke-width="12" />
    <path fill-rule="evenodd" clip-rule="evenodd"
        d="M154.005 313.649C152.687 311.566 150.185 310.459 147.822 311.16C113.16 321.442 90 340.071 90 361.346C90 393.74 143.692 420 209.925 420C276.158 420 329.85 393.74 329.85 361.346C329.85 338.774 303.78 319.18 265.562 309.374C263.186 308.764 260.736 309.948 259.487 312.059V312.059C257.473 315.464 259.171 320.113 263 321.106C272.891 323.67 281.801 326.91 289.453 330.652C309.981 340.692 317.85 352.283 317.85 361.346C317.85 370.41 309.981 382.001 289.453 392.041C269.721 401.692 241.619 408 209.925 408C178.232 408 150.13 401.692 130.397 392.041C109.87 382.001 102 370.41 102 361.346C102 352.283 109.87 340.692 130.397 330.652C136.454 327.69 143.299 325.043 150.795 322.796C154.572 321.664 156.114 316.981 154.005 313.649V313.649Z"
        fill="var(--symbol-color)" />
    <ellipse cx="210.449" cy="76.9827" rx="27.2319" ry="27.7556" fill="var(--symbol-color)" />
</svg>