<svg width="420" height="420" viewBox="0 0 420 420" fill="none" xmlns="http://www.w3.org/2000/svg" class="training-symbol">
    <defs>
        <style>
            .training-symbol{
                --symbol-color: black;
            }
        </style>
        <clipPath id="clip0_110_77">
            <rect width="420" height="420" fill="white" />
        </clipPath>
    </defs>
    <g clip-path="url(#clip0_110_77)">
        <path
            d="M416 210C416 323.771 323.771 416 210 416C96.2293 416 4 323.771 4 210C4 96.2293 96.2293 4 210 4C323.771 4 416 96.2293 416 210Z"
            stroke="var(--symbol-color)" stroke-width="8" />
        <path fill-rule="evenodd" clip-rule="evenodd"
            d="M89.5878 230.404C89.7824 229.513 89.9781 228.626 90.1751 227.744C107.005 152.383 132.928 110.203 202.86 87.4359C210.989 84.7892 219.714 82.4048 229.088 80.2612C221.349 78.1805 211.458 76.4316 201.773 75.1855C189.799 73.6449 178.139 72.8727 171.249 73.1923C111.125 89.9057 67 145.05 67 210.5C67 210.5 67 220.66 67.9495 230.626C68.5335 236.756 69.4767 242.813 71 246.388C72.5983 241.58 76.706 238.664 80.7704 236.411C81.7936 235.844 82.814 235.318 83.791 234.815L83.7912 234.815L83.7914 234.815L83.7916 234.815L83.7917 234.815L83.7919 234.815C86.0466 233.654 88.0698 232.612 89.3607 231.449C89.4362 231.1 89.5119 230.752 89.5878 230.404ZM79.3153 221.375C88.6325 180.978 101.109 148.477 122.947 123.349C136.811 107.397 154.012 94.9011 175.538 85.1228C174.68 85.115 173.872 85.1191 173.119 85.1355C118.741 100.886 79.001 151.066 79 210.498V210.499V210.5L79 210.505L79.0001 210.547L79.0008 210.74C79.0017 210.916 79.0035 211.183 79.0071 211.531C79.0145 212.228 79.0293 213.246 79.0591 214.502C79.1036 216.377 79.1812 218.758 79.3153 221.375ZM180.044 348.664C230.412 350.359 255.192 334.231 286.813 292.283C290.489 287.406 294.258 282.18 298.171 276.592C291.794 278.453 285.636 280.187 279.673 281.783C202.948 302.321 158.348 300.14 93.0184 255.658C87.5072 258.131 85.0018 260.446 83.299 268.966C82.9422 270.962 82.6112 272.911 82.3057 274.816C100.854 311.426 134.744 338.948 175.518 348.923C177.018 348.829 178.527 348.742 180.044 348.664ZM176.646 336.833C177.569 336.779 178.496 336.728 179.428 336.68L179.937 336.654L180.447 336.671C206.912 337.562 224.414 333.22 239.576 323.387C248.992 317.281 257.923 308.804 267.594 297.24C238.205 304.288 212.593 307.683 187.903 305.745C156.544 303.284 127.695 292.324 95.0558 271.392C94.9711 271.868 94.888 272.341 94.8065 272.811C111.863 304.135 141.375 327.688 176.646 336.833ZM112.457 220.369C117.537 220.816 122.477 221.233 127.294 221.62C199.118 227.388 243.735 226.538 321.198 220.369C333.5 204.698 335.852 167.586 332.861 157.418C329.87 147.25 309.652 123.519 283.816 110.915C216.325 119.49 181.507 142.464 122.281 209.168C119.08 212.773 115.809 216.505 112.457 220.369ZM137.324 210.362C201.412 215.152 244.27 214.319 314.298 208.875C317.219 203.131 319.554 194.631 320.88 185.166C321.682 179.442 322.037 173.923 322.03 169.358C322.023 164.48 321.598 161.653 321.349 160.804C321.15 160.13 320.202 158.006 317.767 154.557C315.477 151.313 312.298 147.498 308.361 143.506C301.173 136.217 291.905 128.791 281.681 123.302C249.302 127.76 225.567 135.792 202.534 150.815C182.344 163.983 162.252 182.8 137.324 210.362ZM263 82.5C263.494 82.8945 264.66 84.4684 265.857 86.0831C267.126 87.7953 268.428 89.5533 269 90C271.26 91.2835 273.44 92.5098 275.549 93.6969L275.55 93.6973C295.928 105.164 309.802 112.971 327.284 133.267C312.447 111.529 287.284 93.3259 263 82.5ZM334.507 246.388C335.189 244.4 335.858 242.477 336.511 240.613C337.108 238.911 337.691 237.257 338.259 235.645L338.266 235.625L338.267 235.622L338.268 235.622C341.575 226.241 344.383 218.278 346.369 210.501C348.557 201.934 349.747 193.594 349.511 183.833C351.146 192.472 352.002 201.386 352.002 210.501C352.002 220.411 350.99 230.085 349.064 239.425L349.064 239.428L349.064 239.429L349.063 239.432C348.748 240.958 348.409 242.475 348.046 243.982C347.122 247.821 346.042 251.6 344.814 255.311C334.213 287.337 312.561 314.33 284.374 331.769L284.266 331.768L284.336 331.707L284.375 331.673C315.99 304.132 325.837 284.219 333.253 252.039C333.678 250.196 334.095 248.314 334.507 246.388Z"
            fill="var(--symbol-color)" />
    </g>
</svg>