<svg width="420" height="420" viewBox="0 0 420 420" fill="none" xmlns="http://www.w3.org/2000/svg" class="training-symbol">
    <defs>
        <style>
            .training-symbol{
                --symbol-color: black;
            }
        </style>
    </defs>
<g clip-path="url(#clip0_56_99)">
<path d="M416 210C416 323.771 323.771 416 210 416C96.2293 416 4 323.771 4 210C4 96.2293 96.2293 4 210 4C323.771 4 416 96.2293 416 210Z" stroke="var(--symbol-color)" stroke-width="8"/>
<path d="M283.816 110.915C212.678 119.953 177.84 144.989 112.457 220.369C193.28 227.478 238.54 226.952 321.198 220.369C333.5 204.698 335.851 167.586 332.861 157.418C329.87 147.25 309.652 123.519 283.816 110.915Z" fill="var(--symbol-color)"/>
<path d="M171.249 73.1923C183.711 72.6142 211.782 75.6081 229.088 80.2612C137.766 101.144 99.641 129.308 80.9059 215.883C76.8334 219.553 72.5686 229.128 69.6393 237.939C67.9074 229.06 67 210.5 67 210.5C67 145.05 111.125 89.9057 171.249 73.1923Z" fill="var(--symbol-color)"/>
<path d="M175.518 348.923C134.744 338.948 100.854 311.426 82.3057 274.816C82.6112 272.911 82.9422 270.962 83.299 268.966C85.0018 260.446 87.5072 258.131 93.0184 255.658C163.426 303.598 209.755 302.404 298.171 276.592C260.608 330.24 236.268 350.557 180.044 348.664C178.527 348.742 177.018 348.829 175.518 348.923Z" fill="var(--symbol-color)"/>
<path d="M349.51 183.833C351.146 192.472 352.002 201.387 352.002 210.501C352.002 261.737 324.962 306.657 284.374 331.769L284.266 331.768C317.78 302.6 326.885 282.003 334.507 246.388C335.815 242.577 337.073 239.009 338.266 235.625L338.267 235.623C345.219 215.908 349.962 202.455 349.51 183.833Z" fill="var(--symbol-color)"/>
<path d="M267.465 80.2835C268.483 81.0962 269.547 81.9362 270.658 82.8042C294.752 96.486 307.992 107.87 327.284 130.267C312.447 108.529 291.749 91.1094 267.465 80.2835Z" fill="var(--symbol-color)"/>
</g>
<defs>
<clipPath id="clip0_56_99">
<rect width="420" height="420" fill="var(--symbol-color)"/>
</clipPath>
</defs>
</svg>
