<svg width="420" height="420" viewBox="0 0 420 420" fill="none" xmlns="http://www.w3.org/2000/svg" class="user-symbol">
    <defs>
        <style>
            .user-symbol{
                --symbol-color: black;
            }
        </style>
        <clipPath id="clip0_110_115">
            <rect width="420" height="420" fill="white" />
        </clipPath>
    </defs>
    <g clip-path="url(#clip0_110_115)">
        <path fill-rule="evenodd" clip-rule="evenodd"
            d="M98.5 378.466V352.978C98.5 277.42 108.475 213.174 159.885 189.591C173.509 200.822 190.967 207.567 210.001 207.567C229.117 207.567 246.645 200.763 260.294 189.444C313.158 212.905 326 277.262 326 352.978V375.393C378.01 338.848 412 278.393 412 210C412 98.4385 321.562 8 210 8C98.4385 8 8 98.4385 8 210C8 280.347 43.9596 342.295 98.5 378.466ZM326 385.081C382.653 347.471 420 283.097 420 210C420 94.0202 325.98 0 210 0C94.0202 0 0 94.0202 0 210C0 285.015 39.3328 350.844 98.5 387.987C130.81 408.271 169.035 420 210 420C249.868 420 287.141 408.89 318.893 389.598C321.294 388.139 323.664 386.633 326 385.081ZM210.001 182.424C239.659 182.424 263.705 158.378 263.705 128.712C263.705 99.0463 239.659 75 210.001 75C180.342 75 156.297 99.0463 156.297 128.712C156.297 158.378 180.342 182.424 210.001 182.424ZM210.001 194.424C246.288 194.424 275.705 165.004 275.705 128.712C275.705 92.4204 246.288 63 210.001 63C173.713 63 144.297 92.4204 144.297 128.712C144.297 165.004 173.713 194.424 210.001 194.424ZM121.365 255.383C113.011 282.029 110.5 315.473 110.5 352.978V381.223C139.728 398.247 173.709 408 210 408C248.167 408 283.783 397.212 314 378.521V352.978C314 315.572 310.796 282.13 301.626 255.526C293.419 231.714 280.699 214.05 261.615 203.487C246.957 213.623 229.161 219.567 210.001 219.567C190.975 219.567 173.294 213.706 158.695 203.699C140.563 214.202 128.802 231.659 121.365 255.383Z"
            fill="var(--symbol-color)" />
    </g>
</svg>